<svg width="16" height="16" viewBox="0 0 16 16" fill="none" xmlns="http://www.w3.org/2000/svg">
<path d="M10.334 11.8333L11.1963 13.0136C11.2772 13.1417 11.4327 13.1989 11.5747 13.1482C12.1106 12.9568 13.4388 12.4381 14.5324 11.6483C14.6177 11.5867 14.6669 11.484 14.6663 11.3781C14.6663 5.49992 13.0007 3.83325 13.0007 3.83325C13.0007 3.83325 11.6673 3.068 10.2366 2.83726C10.0959 2.81456 9.95799 2.88998 9.89539 3.01919L9.59872 3.6311C9.59872 3.6311 8.85699 3.4759 8.00012 3.4759C7.14326 3.4759 6.40152 3.6311 6.40152 3.6311L6.10486 3.01919C6.04222 2.88998 5.90442 2.81456 5.76365 2.83726C4.33398 3.06783 3.00065 3.83325 3.00065 3.83325C3.00065 3.83325 1.33399 5.49992 1.33399 11.3781C1.33332 11.484 1.38256 11.5867 1.46785 11.6483C2.56143 12.4381 3.88966 12.9568 4.4255 13.1482C4.56749 13.1989 4.72304 13.1417 4.804 13.0136L5.66732 11.8333" stroke="url(#paint0_linear_104_1031)" stroke-linecap="round" stroke-linejoin="round"/>
<path d="M11.6673 11.1667C11.6673 11.1667 10.1373 12.1667 8.00066 12.1667C5.86404 12.1667 4.33398 11.1667 4.33398 11.1667" stroke="url(#paint1_linear_104_1031)" stroke-linecap="round" stroke-linejoin="round"/>
<path d="M11.5008 8.16659C11.5008 8.90299 10.9785 9.49992 10.3341 9.49992C9.68981 9.49992 9.16748 8.90299 9.16748 8.16659C9.16748 7.43019 9.68981 6.83325 10.3341 6.83325C10.9785 6.83325 11.5008 7.43019 11.5008 8.16659Z" stroke="url(#paint2_linear_104_1031)"/>
<path d="M6.83383 8.16659C6.83383 8.90299 6.31149 9.49992 5.66715 9.49992C5.02283 9.49992 4.50049 8.90299 4.50049 8.16659C4.50049 7.43019 5.02283 6.83325 5.66715 6.83325C6.31149 6.83325 6.83383 7.43019 6.83383 8.16659Z" stroke="url(#paint3_linear_104_1031)"/>
<defs>
<linearGradient id="paint0_linear_104_1031" x1="8.00012" y1="2.83325" x2="8.00012" y2="13.1666" gradientUnits="userSpaceOnUse">
<stop stop-color="#5C2C9A"/>
<stop offset="1" stop-color="#B073FF"/>
</linearGradient>
<linearGradient id="paint1_linear_104_1031" x1="8.00065" y1="11.1667" x2="8.00065" y2="12.1667" gradientUnits="userSpaceOnUse">
<stop stop-color="#5C2C9A"/>
<stop offset="1" stop-color="#B073FF"/>
</linearGradient>
<linearGradient id="paint2_linear_104_1031" x1="10.3341" y1="6.83325" x2="10.3341" y2="9.49992" gradientUnits="userSpaceOnUse">
<stop stop-color="#5C2C9A"/>
<stop offset="1" stop-color="#B073FF"/>
</linearGradient>
<linearGradient id="paint3_linear_104_1031" x1="5.66716" y1="6.83325" x2="5.66716" y2="9.49992" gradientUnits="userSpaceOnUse">
<stop stop-color="#5C2C9A"/>
<stop offset="1" stop-color="#B073FF"/>
</linearGradient>
</defs>
</svg>
