<svg width="1055" height="361" viewBox="0 0 1055 361" fill="none" xmlns="http://www.w3.org/2000/svg">
<g filter="url(#filter0_iii_18_308)">
<path d="M16.8226 61.4766H86.9818V260.739H16.8226V61.4766ZM108.629 127.984H118.671C140.058 127.984 156.402 134.592 167.704 147.806C178.05 159.891 183.223 175.8 183.223 195.535C183.223 215.618 177.528 231.441 166.139 243.004C154.316 255.001 137.406 261 115.411 261H108.629V127.984ZM220.258 61.3461H290.417V261H220.258V61.3461ZM368.14 92.2527C339.364 92.2527 324.975 83.2546 324.975 65.2584C324.975 56.0429 328.41 49.4356 335.278 45.4364C342.146 41.3503 352.622 39.3073 366.706 39.3073C380.79 39.3073 391.179 41.3503 397.873 45.4364C404.567 49.4356 407.915 56.0864 407.915 65.3888C407.915 74.6042 404.785 81.3854 398.525 85.7323C392.353 90.0793 382.224 92.2527 368.14 92.2527ZM332.278 128.115H402.437V261H332.278V128.115ZM533.236 127.984H544.973C576.966 127.984 596.049 138.852 602.222 160.586C604.308 167.628 605.352 175.757 605.352 184.972V261H533.236V127.984ZM439.212 127.984H511.719V261H439.212V127.984ZM638.605 61.3461H708.634V261H638.605V61.3461ZM727.674 152.371C727.674 143.677 731.673 137.026 739.671 132.418C746.8 128.332 755.972 126.289 767.187 126.289C784.662 126.289 796.529 131.027 802.788 140.503C804.962 143.807 806.049 147.763 806.049 152.371C806.049 161.151 802.31 167.889 794.834 172.584C788.052 176.931 779.141 179.104 768.1 179.104C750.452 179.104 738.15 174.149 731.195 164.238C728.847 160.934 727.674 156.978 727.674 152.371ZM732.629 194.623H744.366C776.359 194.623 795.486 205.446 801.745 227.094C803.745 234.223 804.745 242.395 804.745 251.611V261H732.629V194.623Z" fill="#B073FF"/>
</g>
<path d="M881 109L823 51H939L881 109Z" fill="#511445"/>
<path d="M939 51L881 109H997L939 51Z" fill="#BC30A0"/>
<path d="M939 167L881 225H997L939 167Z" fill="#714CA0"/>
<path d="M939 167L997 225V109L939 167Z" fill="#6596D7"/>
<path d="M1055 167L997 225V109L1055 167Z" fill="#71AEFF"/>
<path d="M939 167L881 109H997L939 167Z" fill="#F23DCE"/>
<path d="M939 283L881 225H997L939 283Z" fill="#B073FF"/>
<path d="M881 225L823 283H939L881 225Z" fill="#3B2655"/>
<mask id="path-10-outside-1_18_308" maskUnits="userSpaceOnUse" x="726" y="294" width="212" height="47" fill="black">
<rect fill="white" x="726" y="294" width="212" height="47"/>
<path d="M727.28 296.992L728.048 295.84H732.656L745.072 335.136H746.608L759.088 295.84H763.632L764.4 296.992L750.448 340H741.232L727.28 296.992ZM776.567 340V295.84H805.368V300.704H781.943V314.4H803.448V319.264H781.943V335.136H805.368V340H776.567ZM819.437 340V295.84H840.365C846.894 295.84 850.158 299.104 850.158 305.632V312.672C850.158 318.219 847.79 321.376 843.053 322.144L851.438 338.72L850.734 340H846.189L837.293 322.464H824.813V340H819.437ZM824.813 317.6H840.429C843.331 317.6 844.781 316.149 844.781 313.248V305.056C844.781 302.155 843.331 300.704 840.429 300.704H824.813V317.6ZM863.575 337.76V335.136H883.287C886.188 335.136 887.639 333.685 887.639 330.784V325.6C887.639 323.168 886.551 321.739 884.375 321.312L870.615 318.496C865.922 317.557 863.575 314.421 863.575 309.088V305.632C863.575 299.104 866.839 295.84 873.367 295.84H888.855L891.735 298.08V300.704H873.303C870.402 300.704 868.951 302.155 868.951 305.056V309.408C868.951 311.84 870.039 313.269 872.215 313.696L885.975 316.448C890.668 317.387 893.015 320.544 893.015 325.92V330.208C893.015 336.736 889.751 340 883.223 340H866.455L863.575 337.76ZM907.74 340V295.84H936.54V300.704H913.116V314.4H934.62V319.264H913.116V335.136H936.54V340H907.74Z"/>
</mask>
<path d="M727.28 296.992L728.048 295.84H732.656L745.072 335.136H746.608L759.088 295.84H763.632L764.4 296.992L750.448 340H741.232L727.28 296.992ZM776.567 340V295.84H805.368V300.704H781.943V314.4H803.448V319.264H781.943V335.136H805.368V340H776.567ZM819.437 340V295.84H840.365C846.894 295.84 850.158 299.104 850.158 305.632V312.672C850.158 318.219 847.79 321.376 843.053 322.144L851.438 338.72L850.734 340H846.189L837.293 322.464H824.813V340H819.437ZM824.813 317.6H840.429C843.331 317.6 844.781 316.149 844.781 313.248V305.056C844.781 302.155 843.331 300.704 840.429 300.704H824.813V317.6ZM863.575 337.76V335.136H883.287C886.188 335.136 887.639 333.685 887.639 330.784V325.6C887.639 323.168 886.551 321.739 884.375 321.312L870.615 318.496C865.922 317.557 863.575 314.421 863.575 309.088V305.632C863.575 299.104 866.839 295.84 873.367 295.84H888.855L891.735 298.08V300.704H873.303C870.402 300.704 868.951 302.155 868.951 305.056V309.408C868.951 311.84 870.039 313.269 872.215 313.696L885.975 316.448C890.668 317.387 893.015 320.544 893.015 325.92V330.208C893.015 336.736 889.751 340 883.223 340H866.455L863.575 337.76ZM907.74 340V295.84H936.54V300.704H913.116V314.4H934.62V319.264H913.116V335.136H936.54V340H907.74Z" fill="#B073FF"/>
<path d="M727.28 296.992L726.448 296.437L726.179 296.84L726.329 297.301L727.28 296.992ZM728.048 295.84V294.84H727.513L727.216 295.285L728.048 295.84ZM732.656 295.84L733.61 295.539L733.389 294.84H732.656V295.84ZM745.072 335.136L744.118 335.437L744.339 336.136H745.072V335.136ZM746.608 335.136V336.136H747.34L747.561 335.439L746.608 335.136ZM759.088 295.84V294.84H758.356L758.135 295.537L759.088 295.84ZM763.632 295.84L764.464 295.285L764.167 294.84H763.632V295.84ZM764.4 296.992L765.351 297.301L765.501 296.84L765.232 296.437L764.4 296.992ZM750.448 340V341H751.175L751.399 340.309L750.448 340ZM741.232 340L740.281 340.309L740.505 341H741.232V340ZM728.112 297.547L728.88 296.395L727.216 295.285L726.448 296.437L728.112 297.547ZM728.048 296.84H732.656V294.84H728.048V296.84ZM731.702 296.141L744.118 335.437L746.026 334.835L733.61 295.539L731.702 296.141ZM745.072 336.136H746.608V334.136H745.072V336.136ZM747.561 335.439L760.041 296.143L758.135 295.537L745.655 334.833L747.561 335.439ZM759.088 296.84H763.632V294.84H759.088V296.84ZM762.8 296.395L763.568 297.547L765.232 296.437L764.464 295.285L762.8 296.395ZM763.449 296.683L749.497 339.691L751.399 340.309L765.351 297.301L763.449 296.683ZM750.448 339H741.232V341H750.448V339ZM742.183 339.691L728.231 296.683L726.329 297.301L740.281 340.309L742.183 339.691ZM776.567 340H775.567V341H776.567V340ZM776.567 295.84V294.84H775.567V295.84H776.567ZM805.368 295.84H806.368V294.84H805.368V295.84ZM805.368 300.704V301.704H806.368V300.704H805.368ZM781.944 300.704V299.704H780.944V300.704H781.944ZM781.944 314.4H780.944V315.4H781.944V314.4ZM803.448 314.4H804.448V313.4H803.448V314.4ZM803.448 319.264V320.264H804.448V319.264H803.448ZM781.944 319.264V318.264H780.944V319.264H781.944ZM781.944 335.136H780.944V336.136H781.944V335.136ZM805.368 335.136H806.368V334.136H805.368V335.136ZM805.368 340V341H806.368V340H805.368ZM777.567 340V295.84H775.567V340H777.567ZM776.567 296.84H805.368V294.84H776.567V296.84ZM804.368 295.84V300.704H806.368V295.84H804.368ZM805.368 299.704H781.944V301.704H805.368V299.704ZM780.944 300.704V314.4H782.944V300.704H780.944ZM781.944 315.4H803.448V313.4H781.944V315.4ZM802.448 314.4V319.264H804.448V314.4H802.448ZM803.448 318.264H781.944V320.264H803.448V318.264ZM780.944 319.264V335.136H782.944V319.264H780.944ZM781.944 336.136H805.368V334.136H781.944V336.136ZM804.368 335.136V340H806.368V335.136H804.368ZM805.368 339H776.567V341H805.368V339ZM819.438 340H818.438V341H819.438V340ZM819.438 295.84V294.84H818.438V295.84H819.438ZM843.053 322.144L842.893 321.157L841.544 321.376L842.161 322.595L843.053 322.144ZM851.438 338.72L852.314 339.202L852.568 338.74L852.33 338.269L851.438 338.72ZM850.734 340V341H851.325L851.61 340.482L850.734 340ZM846.189 340L845.298 340.452L845.575 341H846.189V340ZM837.294 322.464L838.185 322.012L837.908 321.464H837.294V322.464ZM824.813 322.464V321.464H823.813V322.464H824.813ZM824.813 340V341H825.813V340H824.813ZM824.813 317.6H823.813V318.6H824.813V317.6ZM824.813 300.704V299.704H823.813V300.704H824.813ZM820.438 340V295.84H818.438V340H820.438ZM819.438 296.84H840.366V294.84H819.438V296.84ZM840.366 296.84C843.475 296.84 845.624 297.617 847.002 298.995C848.381 300.373 849.158 302.522 849.158 305.632H851.158C851.158 302.214 850.302 299.467 848.417 297.581C846.531 295.695 843.784 294.84 840.366 294.84V296.84ZM849.158 305.632V312.672H851.158V305.632H849.158ZM849.158 312.672C849.158 315.314 848.592 317.252 847.581 318.6C846.585 319.929 845.064 320.805 842.893 321.157L843.214 323.131C845.779 322.715 847.81 321.629 849.182 319.8C850.539 317.99 851.158 315.576 851.158 312.672H849.158ZM842.161 322.595L850.545 339.171L852.33 338.269L843.946 321.693L842.161 322.595ZM850.561 338.238L849.857 339.518L851.61 340.482L852.314 339.202L850.561 338.238ZM850.734 339H846.189V341H850.734V339ZM847.081 339.548L838.185 322.012L836.402 322.916L845.298 340.452L847.081 339.548ZM837.294 321.464H824.813V323.464H837.294V321.464ZM823.813 322.464V340H825.813V322.464H823.813ZM824.813 339H819.438V341H824.813V339ZM824.813 318.6H840.429V316.6H824.813V318.6ZM840.429 318.6C842.034 318.6 843.422 318.198 844.401 317.219C845.38 316.24 845.782 314.853 845.782 313.248H843.782C843.782 314.545 843.458 315.333 842.986 315.805C842.515 316.277 841.726 316.6 840.429 316.6V318.6ZM845.782 313.248V305.056H843.782V313.248H845.782ZM845.782 305.056C845.782 303.451 845.38 302.064 844.401 301.085C843.422 300.106 842.034 299.704 840.429 299.704V301.704C841.726 301.704 842.515 302.027 842.986 302.499C843.458 302.971 843.782 303.759 843.782 305.056H845.782ZM840.429 299.704H824.813V301.704H840.429V299.704ZM823.813 300.704V317.6H825.813V300.704H823.813ZM863.575 337.76H862.575V338.249L862.961 338.549L863.575 337.76ZM863.575 335.136V334.136H862.575V335.136H863.575ZM884.375 321.312L884.174 322.292L884.183 322.293L884.375 321.312ZM870.615 318.496L870.815 317.516L870.811 317.515L870.615 318.496ZM888.855 295.84L889.469 295.051L889.198 294.84H888.855V295.84ZM891.735 298.08H892.735V297.591L892.349 297.291L891.735 298.08ZM891.735 300.704V301.704H892.735V300.704H891.735ZM872.215 313.696L872.411 312.715L872.407 312.715L872.215 313.696ZM885.975 316.448L886.171 315.467L885.975 316.448ZM866.455 340L865.841 340.789L866.112 341H866.455V340ZM864.575 337.76V335.136H862.575V337.76H864.575ZM863.575 336.136H883.287V334.136H863.575V336.136ZM883.287 336.136C884.892 336.136 886.279 335.734 887.258 334.755C888.237 333.776 888.639 332.389 888.639 330.784H886.639C886.639 332.081 886.316 332.869 885.844 333.341C885.372 333.813 884.584 334.136 883.287 334.136V336.136ZM888.639 330.784V325.6H886.639V330.784H888.639ZM888.639 325.6C888.639 324.242 888.335 323.04 887.619 322.098C886.894 321.146 885.837 320.58 884.567 320.331L884.183 322.293C885.089 322.471 885.664 322.833 886.027 323.31C886.399 323.798 886.639 324.526 886.639 325.6H888.639ZM884.576 320.332L870.815 317.516L870.415 319.476L884.174 322.292L884.576 320.332ZM870.811 317.515C868.65 317.083 867.13 316.17 866.136 314.841C865.131 313.499 864.575 311.616 864.575 309.088H862.575C862.575 311.894 863.192 314.245 864.534 316.039C865.886 317.846 867.887 318.97 870.419 319.477L870.811 317.515ZM864.575 309.088V305.632H862.575V309.088H864.575ZM864.575 305.632C864.575 302.522 865.352 300.373 866.73 298.995C868.108 297.617 870.257 296.84 873.367 296.84V294.84C869.949 294.84 867.202 295.695 865.316 297.581C863.43 299.467 862.575 302.214 862.575 305.632H864.575ZM873.367 296.84H888.855V294.84H873.367V296.84ZM888.241 296.629L891.121 298.869L892.349 297.291L889.469 295.051L888.241 296.629ZM890.735 298.08V300.704H892.735V298.08H890.735ZM891.735 299.704H873.303V301.704H891.735V299.704ZM873.303 299.704C871.698 299.704 870.311 300.106 869.332 301.085C868.353 302.064 867.951 303.451 867.951 305.056H869.951C869.951 303.759 870.274 302.971 870.746 302.499C871.218 302.027 872.006 301.704 873.303 301.704V299.704ZM867.951 305.056V309.408H869.951V305.056H867.951ZM867.951 309.408C867.951 310.766 868.255 311.968 868.971 312.91C869.696 313.862 870.753 314.428 872.023 314.677L872.407 312.715C871.501 312.537 870.926 312.175 870.563 311.698C870.191 311.21 869.951 310.482 869.951 309.408H867.951ZM872.019 314.677L885.779 317.429L886.171 315.467L872.411 312.715L872.019 314.677ZM885.779 317.429C887.938 317.86 889.457 318.777 890.452 320.117C891.458 321.469 892.015 323.369 892.015 325.92H894.015C894.015 323.095 893.399 320.728 892.058 318.923C890.706 317.105 888.705 315.974 886.171 315.467L885.779 317.429ZM892.015 325.92V330.208H894.015V325.92H892.015ZM892.015 330.208C892.015 333.318 891.238 335.467 889.86 336.845C888.482 338.223 886.333 339 883.223 339V341C886.641 341 889.388 340.145 891.274 338.259C893.16 336.373 894.015 333.626 894.015 330.208H892.015ZM883.223 339H866.455V341H883.223V339ZM867.069 339.211L864.189 336.971L862.961 338.549L865.841 340.789L867.069 339.211ZM907.74 340H906.74V341H907.74V340ZM907.74 295.84V294.84H906.74V295.84H907.74ZM936.54 295.84H937.54V294.84H936.54V295.84ZM936.54 300.704V301.704H937.54V300.704H936.54ZM913.116 300.704V299.704H912.116V300.704H913.116ZM913.116 314.4H912.116V315.4H913.116V314.4ZM934.62 314.4H935.62V313.4H934.62V314.4ZM934.62 319.264V320.264H935.62V319.264H934.62ZM913.116 319.264V318.264H912.116V319.264H913.116ZM913.116 335.136H912.116V336.136H913.116V335.136ZM936.54 335.136H937.54V334.136H936.54V335.136ZM936.54 340V341H937.54V340H936.54ZM908.74 340V295.84H906.74V340H908.74ZM907.74 296.84H936.54V294.84H907.74V296.84ZM935.54 295.84V300.704H937.54V295.84H935.54ZM936.54 299.704H913.116V301.704H936.54V299.704ZM912.116 300.704V314.4H914.116V300.704H912.116ZM913.116 315.4H934.62V313.4H913.116V315.4ZM933.62 314.4V319.264H935.62V314.4H933.62ZM934.62 318.264H913.116V320.264H934.62V318.264ZM912.116 319.264V335.136H914.116V319.264H912.116ZM913.116 336.136H936.54V334.136H913.116V336.136ZM935.54 335.136V340H937.54V335.136H935.54ZM936.54 339H907.74V341H936.54V339Z" fill="url(#paint0_linear_18_308)" mask="url(#path-10-outside-1_18_308)"/>
<defs>
<filter id="filter0_iii_18_308" x="8.82257" y="31.3074" width="801.226" height="237.693" filterUnits="userSpaceOnUse" color-interpolation-filters="sRGB">
<feFlood flood-opacity="0" result="BackgroundImageFix"/>
<feBlend mode="normal" in="SourceGraphic" in2="BackgroundImageFix" result="shape"/>
<feColorMatrix in="SourceAlpha" type="matrix" values="0 0 0 0 0 0 0 0 0 0 0 0 0 0 0 0 0 0 127 0" result="hardAlpha"/>
<feOffset dx="-8" dy="8"/>
<feGaussianBlur stdDeviation="7.35"/>
<feComposite in2="hardAlpha" operator="arithmetic" k2="-1" k3="1"/>
<feColorMatrix type="matrix" values="0 0 0 0 0.355294 0 0 0 0 0.167059 0 0 0 0 0.6 0 0 0 1 0"/>
<feBlend mode="normal" in2="shape" result="effect1_innerShadow_18_308"/>
<feColorMatrix in="SourceAlpha" type="matrix" values="0 0 0 0 0 0 0 0 0 0 0 0 0 0 0 0 0 0 127 0" result="hardAlpha"/>
<feOffset dx="4" dy="1"/>
<feGaussianBlur stdDeviation="12.65"/>
<feComposite in2="hardAlpha" operator="arithmetic" k2="-1" k3="1"/>
<feColorMatrix type="matrix" values="0 0 0 0 0.766573 0 0 0 0 0.658489 0 0 0 0 0.90708 0 0 0 1 0"/>
<feBlend mode="normal" in2="effect1_innerShadow_18_308" result="effect2_innerShadow_18_308"/>
<feColorMatrix in="SourceAlpha" type="matrix" values="0 0 0 0 0 0 0 0 0 0 0 0 0 0 0 0 0 0 127 0" result="hardAlpha"/>
<feOffset dx="3" dy="-8"/>
<feGaussianBlur stdDeviation="9.05"/>
<feComposite in2="hardAlpha" operator="arithmetic" k2="-1" k3="1"/>
<feColorMatrix type="matrix" values="0 0 0 0 0.804582 0 0 0 0 0.705383 0 0 0 0 0.928581 0 0 0 1 0"/>
<feBlend mode="normal" in2="effect2_innerShadow_18_308" result="effect3_innerShadow_18_308"/>
</filter>
<linearGradient id="paint0_linear_18_308" x1="726" y1="321" x2="940" y2="321" gradientUnits="userSpaceOnUse">
<stop stop-color="#5B2B99"/>
<stop offset="1" stop-color="#B28AE4"/>
</linearGradient>
</defs>
</svg>
