<svg width="16" height="16" viewBox="0 0 16 16" fill="none" xmlns="http://www.w3.org/2000/svg">
<path d="M6.6665 4.6847C6.9885 2.78232 8.64417 1.3335 10.6382 1.3335C12.863 1.3335 14.6665 3.13704 14.6665 5.36183C14.6665 7.35583 13.2177 9.0115 11.3153 9.3335" stroke="#B7B7B7" stroke-linecap="round" stroke-linejoin="round"/>
<path d="M5.3335 14.6665C7.54263 14.6665 9.3335 12.8756 9.3335 10.6665C9.3335 8.45737 7.54263 6.6665 5.3335 6.6665C3.12436 6.6665 1.3335 8.45737 1.3335 10.6665C1.3335 12.8756 3.12436 14.6665 5.3335 14.6665Z" stroke="#B7B7B7" stroke-linecap="round" stroke-linejoin="round"/>
<path d="M1.3335 6C1.3335 3.78857 3.12207 2 5.3335 2L4.76207 3.14286" stroke="#B7B7B7" stroke-linecap="round" stroke-linejoin="round"/>
<path d="M14.6665 10C14.6665 12.2114 12.8779 14 10.6665 14L11.2379 12.8571" stroke="#B7B7B7" stroke-linecap="round" stroke-linejoin="round"/>
</svg>
