<svg width="16" height="16" viewBox="0 0 16 16" fill="none" xmlns="http://www.w3.org/2000/svg">
<path d="M13.9618 11.2234C13.5243 8.5909 12.1621 6.63059 10.978 5.47917C10.6334 5.14412 10.4611 4.97659 10.0805 4.82155C9.69993 4.6665 9.3728 4.6665 8.71853 4.6665H7.28147C6.62721 4.6665 6.30007 4.6665 5.91948 4.82155C5.53889 4.97659 5.36661 5.14412 5.02203 5.47917C3.83788 6.63059 2.47574 8.5909 2.03818 11.2234C1.71262 13.1821 3.51951 14.6665 5.53888 14.6665H10.4611C12.4805 14.6665 14.2874 13.1821 13.9618 11.2234Z" stroke="#B7B7B7" stroke-linecap="round" stroke-linejoin="round"/>
<path d="M4.83758 2.96208C4.70004 2.76188 4.50069 2.49016 4.9125 2.4282C5.33578 2.3645 5.77531 2.65426 6.20554 2.6483C6.59475 2.64292 6.79304 2.47029 7.00577 2.22382C7.22977 1.96428 7.57664 1.3335 7.99984 1.3335C8.42304 1.3335 8.7699 1.96428 8.9939 2.22382C9.20664 2.47029 9.4049 2.64292 9.7941 2.6483C10.2244 2.65426 10.6639 2.3645 11.0872 2.4282C11.499 2.49016 11.2996 2.76188 11.1621 2.96208L10.5402 3.86726C10.2742 4.25447 10.1412 4.44808 9.86277 4.55746C9.58444 4.66683 9.2247 4.66683 8.5053 4.66683H7.49437C6.77497 4.66683 6.41524 4.66683 6.13688 4.55746C5.85852 4.44808 5.7255 4.25447 5.45947 3.86726L4.83758 2.96208Z" stroke="#B7B7B7" stroke-linejoin="round"/>
<path d="M9.08463 8.61255C8.9405 8.08048 8.2069 7.60035 7.3263 7.95955C6.44569 8.31868 6.30581 9.47435 7.63783 9.59715C8.23983 9.65261 8.63236 9.53275 8.9917 9.87188C9.3511 10.2109 9.41783 11.154 8.49916 11.4081C7.5805 11.6623 6.67083 11.2652 6.57178 10.7013M7.89463 7.32861V7.83555M7.89463 11.4863V11.9953" stroke="#B7B7B7" stroke-linecap="round" stroke-linejoin="round"/>
</svg>
